Jism 2 (Hindi) 2012 DVDSCR XviD-NRG

Jism 2 Movie Information, Screenshots, Cast, YouTube Trailer & More at:
 
http://iwatchonlinemovie.in/jism-2-movie/

Screenshots: 
http://img859.imageshack.us/img859/1680/vlcsnap2012081111h08m38.png 
http://img717.imageshack.us/img717/4719/vlcsnap2012081111h07m50.png 
http://img401.imageshack.us/img401/6826/vlcsnap2012081111h07m38.png

Synopsis:
It is the story of a porn star who is in search of an enduring love in her life. She is hired by an Intelligence officer to trap a dreaded assassin. The film is an erotica, but also has emotional and intellectual elements to it. It gives a new angle to the life journey of a porn star. Cast: Randeep Hooda, Sunny Leone; Dir: Pooja Bhatt.

NFO:
Format                                   : AVI
Format/Info                              : Audio Video Interleave
File size                                : 805 MiB
Duration                                 : 2h 5mn
Overall bit rate                         : 895 Kbps

Video
ID                                       : 0
Format                                   : MPEG-4 Visual
Format profile                           : Advanced Simple@L5
Format settings, BVOP                    : 2
Format settings, QPel                    : Yes
Format settings, GMC                     : 3 warppoints
Format settings, Matrix                  : Default (H.263)
Codec ID                                 : XVID
Codec ID/Hint                            : XviD
Duration                                 : 2h 5mn
Bit rate                                 : 759 Kbps
Width                                    : 656 pixels
Height                                   : 256 pixels
Display aspect ratio                     : 2.563
Frame rate                               : 25.000 fps
Color space                              : YUV
Chroma subsampling                       : 4:2:0
Bit depth                                : 8 bits
Scan type                                : Progressive
Compression mode                         : Lossy
Bits/(Pixel*Frame)                       : 0.181
Stream size                              : 683 MiB (85%)
Writing library                          : XviD 1.2.1 (UTC 2008-12-04)

Audio
ID                                       : 1
Format                                   : AC-3
Format/Info                              : Audio Coding 3
Mode extension                           : CM (complete main)
Format settings, Endianness              : Big
Codec ID                                 : 2000
Duration                                 : 2h 5mn
Bit rate mode                            : Constant
Bit rate                                 : 128 Kbps
Channel(s)                               : 2 channels
Channel positions                        : Front: L R
Sampling rate                            : 48.0 KHz
Bit depth                                : 16 bits
Compression mode                         : Lossy
Stream size                              : 115 MiB (14%)
Alignment                                : Aligned on interleaves
Interleave, duration                     : 64 ms (1.60 video frames)
Interleave, preload duration             : 192 ms
